<svg xmlns="http://www.w3.org/2000/svg" shape-rendering="geometricPrecision" text-rendering="geometricPrecision" image-rendering="optimizeQuality" fill-rule="evenodd" clip-rule="evenodd" viewBox="0 0 512 512"><circle fill="#2685E8" cx="256" cy="256" r="256"/><path fill="#fff" d="M185.75 144.17h39.17c6.48 0 11.77 5.32 11.77 11.78v200.1c0 6.47-5.31 11.78-11.77 11.78h-39.17c-6.46 0-11.77-5.3-11.77-11.78v-200.1c0-6.48 5.29-11.78 11.77-11.78zm101.33 0h39.17c6.48 0 11.77 5.32 11.77 11.78v200.1c0 6.47-5.31 11.78-11.77 11.78h-39.17c-6.46 0-11.77-5.3-11.77-11.78v-200.1c0-6.48 5.29-11.78 11.77-11.78z"/></svg>